# AST/ASF file generated using VICON BodyLanguage
# -----------------------------------------------
:version 1.10
:name VICON
:units
  mass 1.0
  length 0.45
  angle deg
:documentation
   .ast/.asf automatically generated from VICON data using
   VICON BodyBuilder and BodyLanguage model FoxedUp or BRILLIANT.MOD
:root
   order TX TY TZ RX RY RZ
   axis XYZ
   position 0 0 0  
   orientation 0 0 0 
:bonedata
  begin
     id 1 
     name lhipjoint
     direction 0.62366 -0.717238 0.310833 
     length 2.53602 
     axis 0 0 0  XYZ
  end
  begin
     id 2 
     name lfemur
     direction 0.34202 -0.939693 0  
     length 7.40817  
     axis 0 0 20  XYZ
    dof rx ry rz
    limits (-160.0 20.0)
           (-70.0 70.0)
           (-60.0 70.0)
  end
  begin
     id 3 
     name ltibia
     direction 0.34202 -0.939693 0   
     length 7.7045   
     axis 0 0 20   XYZ
    dof rx
    limits (-10.0 170.0)
  end
  begin
     id 4 
     name lfoot
     direction 0.0673888 -0.185149 0.980397   
     length 2.09456   
     axis -90 7.62852e-016 20   XYZ
    dof rx rz
    limits (-45.0 90.0)
           (-70.0 20.0)
  end
  begin
     id 5 
     name ltoes
     direction 1.53575e-011 -4.21994e-011 1   
     length 1.05543   
     axis -90 7.62852e-016 20   XYZ
    dof rx
    limits (-90.0 20.0)
  end
  begin
     id 6 
     name rhipjoint
     direction -0.489018 -0.800347 0.346851   
     length 2.27268  
     axis 0 0 0  XYZ 
  end
  begin
     id 7 
     name rfemur
     direction -0.34202 -0.939693 0   
     length 7.55487   
     axis 0 0 -20   XYZ
    dof rx ry rz
    limits (-160.0 20.0)
           (-70.0 70.0)
           (-70.0 60.0)
  end
  begin
     id 8 
     name rtibia
     direction -0.34202 -0.939693 0   
     length 7.78969   
     axis 0 0 -20   XYZ
    dof rx
    limits (-10.0 170.0)
 end
 begin
     id 9 
     name rfoot
     direction -0.0859318 -0.236096 0.967923   
     length 2.19143  
     axis -90 -7.62852e-016 -20   XYZ
    dof rx rz
    limits (-45.0 90.0)
           (-20.0 70.0)
  end
  begin
     id 10 
     name rtoes
     direction -1.53538e-011 -4.21989e-011 1   
     length 1.09845   
     axis -90 -7.62852e-016 -20   XYZ
    dof rx
    limits (-90.0 20.0)
  end
  begin
     id 11 
     name lowerback
     direction -0.00762546 0.998978 -0.0445553   
     length 1.98161   
     axis 0 0 0   XYZ
    dof rx ry rz
    limits (-20.0 45.0)
           (-30.0 30.0)
           (-30.0 30.0)
  end
  begin
     id 12 
     name upperback
     direction 0.0422361 0.998867 -0.0219156   
     length 1.97558   
     axis 0 0 0   XYZ
    dof rx ry rz
    limits (-20.0 45.0)
           (-30.0 30.0)
           (-30.0 30.0)
  end
  begin
     id 13 
     name thorax
     direction 0.0442465 0.999021 7.47603e-005   
     length 1.97799   
     axis 0 0 0   XYZ
    dof rx ry rz
    limits (-20.0 45.0)
           (-30.0 30.0)
           (-30.0 30.0)
  end
  begin
     id 14 
     name lowerneck
     direction 0.00312169 0.984641 0.174564   
     length 1.78995   
     axis 0 0 0   XYZ
    dof rx ry rz
    limits (-20.0 45.0)
           (-30.0 30.0)
           (-30.0 30.0)
  end
  begin
     id 15 
     name upperneck
     direction -0.0383028 0.985255 -0.166749   
     length 1.83053   
     axis 0 0 0   XYZ
    dof rx ry rz
    limits (-20.0 45.0)
           (-30.0 30.0)
           (-30.0 30.0)
  end
  begin
     id 16
     name head
     direction -0.0129546 0.997059 -0.0755386  
     length 1.84088  
     axis 0 0 0   XYZ
    dof rx ry rz
    limits (-20.0 45.0)
           (-30.0 30.0)
           (-30.0 30.0)
  end
  begin
     id 17 
     name lclavicle
     direction 0.912857 0.370519 -0.171488  
     length 3.51279  
     axis 0 0 0   XYZ
    dof ry rz
    limits (-20.0 10.0)
           (0.0 20.0)
  end
  begin
     id 18 
     name lhumerus
     direction 1 -4.48962e-011 3.64361e-027   
     length 4.95663   
     axis 180 -30 -90   XYZ
    dof rx ry rz
    limits (-60.0 90.0)
           (-90.0 90.0)
           (-90.0 90.0)
  end
  begin
     id 19
     name lradius
     direction 1 -4.48974e-011 5.97202e-027   
     length 3.38177   
     axis 180 -30 -90   XYZ
    dof rx
    limits (-10.0 170.0)
  end
  begin
     id 20
     name lwrist
     direction 1 -4.4896e-011 9.83288e-027   
     length 1.69088   
     axis -9.31221e-015 90 90   XYZ
    dof ry
    limits (-180.0 0.0)
 end
  begin
     id 21 
     name lhand
     direction 1 -4.4902e-011 1.96551e-026   
     length 0.662909   
     axis -1.25475e-014 90 90   XYZ
    dof rx rz
    limits (-90.0 90.0)
           (-45.0 45.0)
  end
  begin
     id 22 
     name lfingers
     direction 1 -4.48971e-011 3.93277e-026   
     length 0.534454   
     axis -2.50945e-014 90 90   XYZ
    dof rx
    limits (0.0 90.0)
  end
  begin
     id 23
     name lthumb
     direction 0.707107 -6.34933e-011 0.707107   
     length 0.767373   
     axis -90 45 -4.80359e-014   XYZ
    dof rx rz
    limits (-45.0 45.0)
           (-45.0 45.0)
  end
  begin
     id 24 
     name rclavicle
     direction -0.900919 0.395364 -0.178976   
     length 3.40627  
     axis 0 0 0   XYZ 
    dof ry rz
    limits (-10.0 20.0)
           (-20.0 0.0)
  end
  begin
     id 25 
     name rhumerus
     direction -1 -4.48969e-011 1.03875e-027  
     length 5.08365   
     axis 180 30 90   XYZ
    dof rx ry rz
    limits (-90.0 60.0)
           (-90.0 90.0)
           (-90.0 90.0)
  end
  begin
     id 26 
     name rradius
     direction -1 -4.48951e-011 5.02733e-027   
     length 3.35984   
     axis 180 30 90   XYZ
    dof rx
    limits (-10.0 170.0)
  end
  begin
     id 27 
     name rwrist
     direction -1 -4.49011e-011 9.82828e-027   
     length 1.67992   
     axis -9.31221e-015 -90 -90   XYZ
    dof ry
    limits (-180.0 0.0)
  end
  begin
     id 28
     name rhand
     direction -1 -4.48894e-011 1.96774e-026   
     length 0.820764   
     axis -1.25475e-014 -90 -90   XYZ
    dof rx rz
    limits (-90.0 90.0)
           (-45.0 45.0)
  end
  begin
     id 29
     name rfingers
     direction -1 -4.49095e-011 3.92833e-026   
     length 0.661721   
     axis -2.50945e-014 -90 -90   XYZ
    dof rx
    limits (0.0 90.0)
  end
  begin
     id 30
     name rthumb
     direction -0.707107 -6.34881e-011 0.707107   
     length 0.950103   
     axis -90 -45 4.80359e-014   XYZ
    dof rx rz
    limits (-45.0 45.0)
           (-45.0 45.0)
  end
:hierarchy
  begin
    root lhipjoint rhipjoint lowerback
    lhipjoint lfemur
    lfemur ltibia
    ltibia lfoot
    lfoot ltoes
    rhipjoint rfemur
    rfemur rtibia
    rtibia rfoot
    rfoot rtoes
    lowerback upperback
    upperback thorax
    thorax lowerneck lclavicle rclavicle
    lowerneck upperneck
    upperneck head
    lclavicle lhumerus
    lhumerus lradius
    lradius lwrist
    lwrist lhand lthumb
    lhand lfingers
    rclavicle rhumerus
    rhumerus rradius
    rradius rwrist
    rwrist rhand rthumb
    rhand rfingers
  end

#!OML:ASF I:\golf\golf\golf 2\Subject 1\2002-09-07\Subject1.ASF
:FULLY-SPECIFIED
:DEGREES
65
root 1.00214 17.8152 -7.85325 10.2372 -5.21687 -7.78395
lowerback -4.24822 1.1326 1.07098
upperback 1.07718 1.26552 5.50359
thorax 3.40014 0.592348 5.20523
lowerneck -16.4752 0.638846 0.292995
upperneck 42.0846 4.03211 -7.10844
head 19.073 0.645047 -2.68516
rclavicle 4.24405e-014 1.27222e-014
rhumerus -25.3884 1.52002 -83.238
rradius 25.8684
rwrist -9.11929
rhand -21.4154 12.2714
rfingers 7.12502
rthumb 4.97328 -17.6502
lclavicle 4.24405e-014 1.27222e-014
lhumerus -26.5051 -3.53334 92.8431
lradius 23.6886
lwrist -0.511252
lhand -11.1828 30.8559
lfingers 7.12502
lthumb 14.8444 60.3042
rfemur -17.7234 1.8217 25.0894
rtibia 30.7498
rfoot -17.8369 -5.57639
rtoes 0.564933
lfemur -23.9111 2.49556 -12.437
ltibia 38.9891
lfoot -19.7813 5.45412
ltoes -2.1896
66
root 1.00863 17.8147 -7.84808 10.222 -5.13752 -7.70217
lowerback -4.18816 1.10073 0.997935
upperback 1.12396 1.22869 5.45907
thorax 3.41708 0.572357 5.19659
lowerneck -16.4557 0.668637 0.324287
upperneck 42.063 4.05388 -7.08303
head 19.0544 0.662779 -2.6724
rclavicle -1.28216e-014 2.78299e-014
rhumerus -25.3561 1.47445 -83.2706
rradius 25.8691
rwrist -9.03027
rhand -21.4734 12.0464
rfingers 7.12502
rthumb 4.91728 -17.8766
lclavicle -1.28216e-014 2.78299e-014
lhumerus -26.5247 -3.77889 92.8466
lradius 23.6596
lwrist -0.321607
lhand -11.2464 30.576
lfingers 7.12502
lthumb 14.7831 60.0288
rfemur -17.701 1.75195 24.9901
rtibia 30.767
rfoot -17.8607 -5.5695
rtoes 0.93115
lfemur -23.887 2.55606 -12.5493
ltibia 38.9522
lfoot -19.7792 5.34997
ltoes -2.48846
67
root 1.01636 17.815 -7.84078 10.2634 -5.10516 -7.78811
lowerback -4.11785 1.09647 1.1218
upperback 1.12777 1.21933 5.44576
thorax 3.3849 0.57066 5.10928
lowerneck -16.4465 0.707193 0.319268
upperneck 42.113 4.0935 -7.02112
head 19.0835 0.685665 -2.63595
rclavicle 3.37934e-014 4.69132e-014
rhumerus -25.3527 1.40631 -83.3137
rradius 25.8312
rwrist -8.98665
rhand -21.511 11.8454
rfingers 7.12502
rthumb 4.88095 -18.0784
lclavicle 3.37934e-014 4.69132e-014
lhumerus -26.5723 -3.86947 92.8156
lradius 23.6142
lwrist -0.267303
lhand -11.3199 30.4259
lfingers 7.12502
lthumb 14.7123 59.8838
rfemur -17.7235 1.71465 25.0653
rtibia 30.7897
rfoot -17.8926 -5.56121
rtoes 1.06225
lfemur -23.9011 2.61851 -12.4847
ltibia 38.9327
lfoot -19.831 5.30551
ltoes -2.47034
68
root 1.02522 17.8167 -7.83279 10.3704 -5.12735 -7.79998
lowerback -4.02959 1.10294 1.12856
upperback 1.07448 1.23519 5.42086
thorax 3.27905 0.580551 5.07603
lowerneck -16.4621 0.741225 0.364723
upperneck 42.2186 4.13944 -7.02233
head 19.16 0.709743 -2.64236
rclavicle 8.74653e-015 3.26007e-014
rhumerus -25.3873 1.33709 -83.3445
rradius 25.753
rwrist -8.95067
rhand -21.6421 11.9409
rfingers 7.12502
rthumb 4.75438 -17.9857
lclavicle 8.74653e-015 3.26007e-014
lhumerus -26.629 -3.79894 92.752
lradius 23.5415
lwrist -0.376614
lhand -11.345 30.4515
lfingers 7.12502
lthumb 14.6881 59.9112
rfemur -17.8279 1.7494 25.0347
rtibia 30.8019
rfoot -17.8497 -5.53316
rtoes 1.26332
lfemur -23.9947 2.66786 -12.5205
ltibia 38.9343
lfoot -19.9039 5.21906
ltoes -2.08572
69
root 1.03629 17.8176 -7.8275 10.4722 -5.17118 -7.73006
lowerback -3.87724 1.10847 1.0903
upperback 1.01565 1.25633 5.3608
thorax 3.13063 0.593032 5.02954
lowerneck -16.4791 0.780071 0.426971
upperneck 42.2597 4.18709 -7.03646
head 19.1971 0.735938 -2.65398
rclavicle -1.23246e-014 -7.55382e-014
rhumerus -25.4063 1.26864 -83.3831
rradius 25.6793
rwrist -8.83309
rhand -21.7448 12.0857
rfingers 7.12502
rthumb 4.65515 -17.8431
lclavicle -1.23246e-014 -7.55382e-014
lhumerus -26.6596 -3.67253 92.6596
lradius 23.4735
lwrist -0.617732
lhand -11.347 30.5126
lfingers 7.12502
lthumb 14.6862 59.9725
rfemur -17.9286 1.75198 24.8995
rtibia 30.7631
rfoot -17.7679 -5.4374
rtoes 1.35779
lfemur -24.0859 2.68328 -12.6557
ltibia 38.9283
lfoot -19.8908 5.19784
ltoes -2.04494
70
root 1.04799 17.8184 -7.8242 10.5505 -5.16266 -7.81291
lowerback -3.82437 1.12117 1.18666
upperback 1.02212 1.27016 5.36541
thorax 3.10842 0.60185 4.97904
lowerneck -16.4182 0.799292 0.448165
upperneck 42.2059 4.19823 -7.02429
head 19.1455 0.74716 -2.64561
rclavicle 1.00386e-014 6.36111e-015
rhumerus -25.3604 1.13447 -83.3582
rradius 25.6084
rwrist -8.66306
rhand -21.6587 12.1517
rfingers 7.12502
rthumb 4.73837 -17.7753
lclavicle 1.00386e-014 6.36111e-015
lhumerus -26.6359 -3.59571 92.6277
lradius 23.4323
lwrist -0.79679
lhand -11.3083 30.5942
lfingers 7.12502
lthumb 14.7235 60.0513
rfemur -17.983 1.73702 24.956
rtibia 30.7139
rfoot -17.6971 -5.5843
rtoes -0.299205
lfemur -24.1596 2.73813 -12.607
ltibia 38.9282
lfoot -19.8738 5.2162
ltoes -2.36493
71
root 1.05987 17.825 -7.81664 10.634 -5.19154 -7.94535
lowerback -3.98076 1.14453 1.23677
upperback 1.12099 1.28425 5.43389
thorax 3.29799 0.606448 5.03121
lowerneck -16.3821 0.797323 0.404336
upperneck 42.1593 4.19706 -7.00221
head 19.1032 0.743926 -2.62351
rclavicle 9.44227e-015 3.33958e-014
rhumerus -25.2403 1.0894 -83.2732
rradius 25.5694
rwrist -8.53224
rhand -21.569 12.173
rfingers 7.12502
rthumb 4.82498 -17.7521
lclavicle 9.44227e-015 3.33958e-014
lhumerus -26.5671 -3.48564 92.6346
lradius 23.5249
lwrist -0.891817
lhand -11.0999 30.6742
lfingers 7.12502
lthumb 14.9243 60.1165
rfemur -18.0207 1.72146 25.0696
rtibia 30.6712
rfoot -17.6284 -5.77962
rtoes -2.2656
lfemur -24.2164 2.76915 -12.5095
ltibia 38.937
lfoot -19.9244 5.32085
ltoes -2.64503
